<svg xmlns="http://www.w3.org/2000/svg" width="298" height="298" viewBox="0 0 298 298">
  <g id="Group_46112" data-name="Group 46112" transform="translate(1007 365)">
    <circle id="Ellipse_7757" data-name="Ellipse 7757" cx="149" cy="149" r="149" transform="translate(-1007 -365)" fill="#fff"/>
    <g id="Layer_2" data-name="Layer 2" transform="translate(-970.805 -316.5)">
      <g id="Layer_1" data-name="Layer 1" transform="translate(7.805 8.5)">
        <path id="Path_72174" data-name="Path 72174" d="M393.19,997.174a8.012,8.012,0,0,1,2.5-.9q20.659-.042,41.32.082a10.853,10.853,0,0,1,2.84.817Z" transform="translate(-346.948 -812.256)" fill="#327cbb"/>
        <path id="Path_72175" data-name="Path 72175" d="M566.357,288a74.191,74.191,0,0,0-3.513-12.94,79.542,79.542,0,0,0-6.458-13.37,154.94,154.94,0,0,0-11.161-15.763,74.51,74.51,0,0,0-19.245-16.365c-4.686-2.894-9.893-4.99-14.991-7.152a79.921,79.921,0,0,0-12.469-4.355,67.5,67.5,0,0,0-13.881-2c-18.393-.511-36.8-.941-55.194-.889a52.8,52.8,0,0,0-17.064,2.75c-9.051,3.176-16.586,8.769-21.3,17.572-2.626,4.9-4.941,9.827-4.818,15.568.082,3.945-.539,8,.186,11.81a52.1,52.1,0,0,0,4.258,11.785,33.5,33.5,0,0,0,12.6,13.994,53.025,53.025,0,0,0,27.9,7.451c7.42.014,14.841,0,22.261.042q10.742.056,21.487.2c4.5.054,11.229,4.381,12.323,8.493,1.287,4.835-.8,11.229-7.058,12.681-9.5,2.2-19.08,1.193-28.625,1.362q-17.022.3-34.05-.038c-5.3-.1-10.041,1.263-14.958,3.042-6.66,2.409-10.277,7.277-13.34,13.137-1.755,3.36-3.1,6.679-3.044,10.533.026,1.833.428,2.588,2.5,2.588,27.082-.049,54.166.061,81.25-.045a56.68,56.68,0,0,0,13.681-1.459,46.5,46.5,0,0,0,15.167-6.715A43.347,43.347,0,0,0,511.81,326.37a36.873,36.873,0,0,0,3.719-9.973,55.238,55.238,0,0,0,1.647-11.241c.193-5.536-1.868-10.563-4.27-15.511a36.522,36.522,0,0,0-14.184-15.7,45.057,45.057,0,0,0-14.573-5.868c-15-2.983-30.1-.746-45.127-1.454-4.1-.193-8.213.052-12.314-.082-3.84-.125-7.488-1.292-9.646-4.6-3.764-5.795-1.915-13.749,5.277-16.4,4.023-1.484,8-1.367,12.064-1.376,14.5-.035,29.011-.247,43.505.11,5.021.125,9.983,1.882,15.01,2.588,5.223.753,9.792,3.188,14.208,5.646a57.541,57.541,0,0,1,17.645,14.972,65.336,65.336,0,0,1,8.669,14.394,93.683,93.683,0,0,1,3.414,10.046c1.764,5.851,2.04,11.763,2.068,17.727q0,1.8-.064,3.611a25.839,25.839,0,0,1-1.16,9.512c-.064.216-.108.435-.183.649a61.888,61.888,0,0,1-4.075,10.086,30.685,30.685,0,0,1-2.117,4.59,43.747,43.747,0,0,1-2.988,4.414c-.327.515-.617,1-.965,1.534l-.037-.273q-1.3,1.609-2.633,3.174a64.443,64.443,0,0,1-16.393,13.881,56.55,56.55,0,0,1-13.9,5.689c-8.846,2.378-17.765,2.99-26.842,2.962-26.383-.087-52.768,0-79.153-.094-2.369,0-3.058.812-3.03,3.023.073,7.863-.031,15.728.085,23.588a7.993,7.993,0,0,0,.847,2.851h88.3v.089a76.317,76.317,0,0,0,9.792-.47,124.8,124.8,0,0,0,19.485-4.068,110.718,110.718,0,0,0,19.873-8.533,78.952,78.952,0,0,0,23.089-19.908,113,113,0,0,0,9.062-13.062,91.5,91.5,0,0,0,5.508-11.975c1.607-3.931,3.058-7.938,4.322-12a42.12,42.12,0,0,0,1.607-7.858c.586-5.261,1.423-10.568,1.247-15.824A116.155,116.155,0,0,0,566.357,288Z" transform="translate(-340.981 -214.922)" fill="#327cbb"/>
        <rect id="Rectangle_19826" data-name="Rectangle 19826" width="183.88" height="31.041" rx="2.75" transform="translate(0 183.88) rotate(-90)" fill="#327cbb"/>
        <rect id="Rectangle_19827" data-name="Rectangle 19827" width="47.103" height="29.491" transform="translate(20.318 154.422)" fill="#327cbb"/>
      </g>
    </g>
  </g>
</svg>
